<svg width="348" height="241" viewBox="0 0 348 241" fill="none" xmlns="http://www.w3.org/2000/svg">
<path d="M343.3 240.67H4.11C1.84 240.67 0 238.83 0 236.56C0 234.29 1.84 232.45 4.11 232.45H343.3C345.57 232.45 347.41 234.29 347.41 236.56C347.41 238.83 345.57 240.67 343.3 240.67Z" fill="white"/>
<path d="M183.88 240.67C181.68 240.67 179.85 238.92 179.78 236.7C179.04 215.59 181.26 208.02 198.3 195.04C200.65 193.03 203.34 190.72 206.06 188.31C234.05 163.32 245.73 126.17 236.55 91.36C233.63 80.36 228.72 69.77 221.95 59.89C215.47 50.5 207.17 41.6 197.19 33.35C201.83 44.09 206.23 60.58 193.23 74.14C182.02 85.06 169.37 88.16 153.99 91.09C124.27 95.77 104.51 111.11 98.2199 134.29C91.4599 159.2 101.98 187.49 125.03 206.37C125.25 206.55 125.45 206.75 125.63 206.97C131.23 213.94 130.89 222.61 130.59 230.26C130.5 232.44 130.42 234.5 130.48 236.44C130.54 238.71 128.76 240.6 126.49 240.66C124.21 240.78 122.33 238.94 122.27 236.67C122.21 234.45 122.3 232.16 122.39 229.94C122.65 223.28 122.9 216.98 119.47 212.43C94.1699 191.5 82.7199 160.03 90.2899 132.13C97.3799 106.02 120.08 88.1 152.58 82.98C166.92 80.25 177.9 77.59 187.39 68.34C199.48 55.73 191.11 39.16 186.61 30.26C184.2 25.5 182.61 22.35 185.29 19.71C187.9 17.13 191.42 18.96 192.93 19.74C193.11 19.83 193.28 19.94 193.45 20.06C208.08 30.65 219.94 42.48 228.73 55.22C236.03 65.88 241.34 77.33 244.5 89.24C254.48 127.07 241.85 167.37 211.54 194.43C208.77 196.89 206.03 199.24 203.46 201.43C188.59 212.77 187.34 217.81 188 236.4C188.08 238.67 186.31 240.57 184.04 240.65C183.99 240.65 183.94 240.65 183.89 240.65L183.88 240.67Z" fill="white"/>
<path d="M104.57 114.53C102.75 114.53 101 113.48 100.2 111.71C93.7299 97.43 93.8199 82.18 100.45 69.88C107.75 56.34 122.46 47.2 141.87 44.14C151.25 42.37 158.45 40.64 164.56 34.68C171.24 27.71 167.59 18.79 163.64 10.98C161.98 7.69 160.26 4.29 163.12 1.47C164.98 -0.370001 167.52 -0.480001 170.64 1.15C170.85 1.26 171.05 1.38 171.24 1.52C179.57 7.55 191.12 18.92 196.67 25.76C197.63 26.94 197.98 28.51 197.59 29.99C197.21 31.47 196.15 32.67 194.73 33.24C192.61 34.09 191.85 34.21 189.26 31.79L189.23 31.82C189.15 31.72 189.07 31.63 188.99 31.53C187.92 30.51 186.56 29.08 184.71 27.15C184.29 26.72 183.98 26.22 183.75 25.7C181.69 23.54 179.39 21.25 177.03 19.02C178.64 25.97 178.31 34.21 171.36 41.46C163.25 49.38 153.95 51.65 143.5 53.62C126.74 56.26 114.82 63.46 108.89 74.46C103.69 84.1 103.71 96.25 108.93 107.78C110.02 110.19 108.95 113.03 106.54 114.13C105.9 114.42 105.23 114.56 104.56 114.56L104.57 114.53Z" fill="white"/>
<path d="M208.7 239.44C206.5 239.44 204.68 237.7 204.6 235.48C203.9 216.36 207.4 211.27 222.71 197.78C224.1 196.55 225.55 195.4 227 194.24C228.29 193.21 229.58 192.19 230.82 191.11C231.86 190.2 232.92 189.27 233.98 188.32C262 163.33 273.68 126.18 264.47 91.37C258.75 69.71 245.55 50.25 225.18 33.4C228.2 40.28 230.97 49.1 229.39 58.28C229 60.52 226.89 62.02 224.64 61.64C222.4 61.26 220.9 59.13 221.28 56.89C222.98 46.96 217.71 36.53 214.56 30.3C212.15 25.54 210.56 22.39 213.24 19.75C215.84 17.17 219.37 19 220.87 19.78C221.05 19.87 221.22 19.98 221.39 20.1C248.25 39.55 265.42 62.83 272.41 89.29C282.41 127.12 269.78 167.42 239.44 194.48C238.36 195.45 237.28 196.39 236.22 197.32C234.89 198.48 233.5 199.59 232.12 200.69C230.77 201.76 229.43 202.83 228.14 203.97C214.71 215.81 212.2 218.56 212.81 235.21C212.89 237.48 211.12 239.38 208.85 239.47C208.8 239.47 208.75 239.47 208.7 239.47V239.44Z" fill="white"/>
</svg>
