<svg width="365" height="320" viewBox="0 0 365 320" fill="white" xmlns="http://www.w3.org/2000/svg">
<path d="M18.46 292.01L0.959994 265.55C-1.56001 261.73 1.16999 256.64 5.74999 256.64H5.98999C7.98999 256.64 9.83999 257.68 10.88 259.38L24.36 281.34L38.02 259.35C39.07 257.66 40.91 256.64 42.9 256.64C47.47 256.64 50.21 261.72 47.69 265.54L30.44 291.73V311.85C30.44 315.16 27.76 317.84 24.45 317.84C21.14 317.84 18.46 315.16 18.46 311.85V292.02V292.01Z" fill="black"/>
<path d="M59.62 293.5V262.38C59.62 259.21 62.19 256.64 65.36 256.64H65.85C69.02 256.64 71.59 259.21 71.59 262.38V293.5C71.59 302.58 76.27 308 85.53 308C94.79 308 99.56 302.57 99.56 293.5V262.38C99.56 259.21 102.13 256.64 105.3 256.64H105.51C108.68 256.64 111.25 259.21 111.25 262.38V293.5C111.25 309.12 102.08 319.04 85.61 319.04C69.14 319.04 59.6 309.22 59.6 293.5H59.62Z" fill="black"/>
<path d="M120.9 278.44C120.9 262.72 130.16 255.42 142.23 255.42C150 255.42 156.08 258.69 159.63 264.78C163.19 258.7 169.27 255.42 177.03 255.42C189.1 255.42 198.36 262.72 198.36 278.44V311.84C198.36 315.15 195.68 317.83 192.37 317.83C189.06 317.83 186.38 315.15 186.38 311.84V278.44C186.38 270.02 181.89 266.56 176 266.56C170.11 266.56 165.61 270.11 165.61 278.44V311.84C165.61 315.15 162.93 317.83 159.62 317.83C156.31 317.83 153.63 315.15 153.63 311.84V278.44C153.63 270.11 149.14 266.56 143.24 266.56C137.34 266.56 132.85 270.02 132.85 278.44V311.84C132.85 315.15 130.17 317.83 126.86 317.83C123.55 317.83 120.87 315.15 120.87 311.84V278.44H120.9Z" fill="black"/>
<path d="M208.09 278.44C208.09 262.72 217.35 255.42 229.42 255.42C237.18 255.42 243.27 258.69 246.82 264.78C250.38 258.7 256.46 255.42 264.22 255.42C276.29 255.42 285.55 262.72 285.55 278.44V311.84C285.55 315.15 282.87 317.83 279.56 317.83C276.25 317.83 273.57 315.15 273.57 311.84V278.44C273.57 270.02 269.08 266.56 263.18 266.56C257.28 266.56 252.8 270.11 252.8 278.44V311.84C252.8 315.15 250.12 317.83 246.81 317.83C243.5 317.83 240.82 315.15 240.82 311.84V278.44C240.82 270.11 236.33 266.56 230.43 266.56C224.53 266.56 220.04 270.02 220.04 278.44V311.84C220.04 315.15 217.36 317.83 214.05 317.83C210.74 317.83 208.06 315.15 208.06 311.84V278.44H208.09Z" fill="black"/>
<path d="M311.38 292.01L293.88 265.55C291.36 261.73 294.09 256.64 298.67 256.64H298.91C300.91 256.64 302.76 257.68 303.8 259.38L317.28 281.34L330.94 259.35C331.99 257.66 333.83 256.64 335.82 256.64C340.39 256.64 343.13 261.72 340.61 265.54L323.36 291.73V311.85C323.36 315.16 320.68 317.84 317.37 317.84C314.06 317.84 311.38 315.16 311.38 311.85V292.02V292.01Z" fill="black"/>
<path d="M346.41 266.61C346.41 261.41 350.23 257.58 355.65 257.58C361.07 257.58 364.89 261.4 364.89 266.61C364.89 271.82 361.07 275.64 355.65 275.64C350.23 275.64 346.41 271.82 346.41 266.61ZM362.87 266.61C362.87 262.49 359.95 259.49 355.65 259.49C351.35 259.49 348.43 262.49 348.43 266.61C348.43 270.73 351.32 273.73 355.65 273.73C359.98 273.73 362.87 270.73 362.87 266.61ZM352.12 262.31H356.61C358.52 262.31 359.69 263.48 359.69 265.18C359.69 266.51 359.03 267.54 357.7 267.94L359.98 270.91H357.62L355.71 268.1H354.12V270.91H352.13V262.31H352.12ZM356.39 266.4C357.27 266.4 357.64 265.9 357.64 265.21C357.64 264.52 357.27 264.04 356.39 264.04H354.11V266.4H356.39Z" fill="black"/>
<path d="M343.3 240.67H4.11C1.84 240.67 0 238.83 0 236.56C0 234.29 1.84 232.45 4.11 232.45H343.3C345.57 232.45 347.41 234.29 347.41 236.56C347.41 238.83 345.57 240.67 343.3 240.67Z" fill="#221D18"/>
<path d="M183.88 240.67C181.68 240.67 179.85 238.92 179.78 236.7C179.04 215.59 181.26 208.02 198.3 195.04C200.65 193.03 203.34 190.72 206.06 188.31C234.05 163.32 245.73 126.17 236.55 91.36C233.63 80.36 228.72 69.77 221.95 59.89C215.47 50.5 207.17 41.6 197.19 33.35C201.83 44.09 206.23 60.58 193.23 74.14C182.02 85.06 169.37 88.16 153.99 91.09C124.27 95.77 104.51 111.11 98.22 134.29C91.46 159.2 101.98 187.49 125.03 206.37C125.25 206.55 125.45 206.75 125.63 206.97C131.23 213.94 130.89 222.61 130.59 230.26C130.5 232.44 130.42 234.5 130.48 236.44C130.54 238.71 128.76 240.6 126.49 240.66C124.21 240.78 122.33 238.94 122.27 236.67C122.21 234.45 122.3 232.16 122.39 229.94C122.65 223.28 122.9 216.98 119.47 212.43C94.17 191.5 82.72 160.03 90.29 132.13C97.38 106.02 120.08 88.1 152.58 82.98C166.92 80.25 177.9 77.59 187.39 68.34C199.48 55.73 191.11 39.16 186.61 30.26C184.2 25.5 182.61 22.35 185.29 19.71C187.9 17.13 191.42 18.96 192.93 19.74C193.11 19.83 193.28 19.94 193.45 20.06C208.08 30.65 219.94 42.48 228.73 55.22C236.03 65.88 241.34 77.33 244.5 89.24C254.48 127.07 241.85 167.37 211.54 194.43C208.77 196.89 206.03 199.24 203.46 201.43C188.59 212.77 187.34 217.81 188 236.4C188.08 238.67 186.31 240.57 184.04 240.65C183.99 240.65 183.94 240.65 183.89 240.65L183.88 240.67Z" fill="#221D18"/>
<path d="M104.57 114.53C102.75 114.53 101 113.48 100.2 111.71C93.73 97.43 93.82 82.18 100.45 69.88C107.75 56.34 122.46 47.2 141.87 44.14C151.25 42.37 158.45 40.64 164.56 34.68C171.24 27.71 167.59 18.79 163.64 10.98C161.98 7.69 160.26 4.29 163.12 1.47C164.98 -0.370001 167.52 -0.480001 170.64 1.15C170.85 1.26 171.05 1.38 171.24 1.52C179.57 7.55 191.12 18.92 196.67 25.76C197.63 26.94 197.98 28.51 197.59 29.99C197.21 31.47 196.15 32.67 194.73 33.24C192.61 34.09 191.85 34.21 189.26 31.79L189.23 31.82C189.15 31.72 189.07 31.63 188.99 31.53C187.92 30.51 186.56 29.08 184.71 27.15C184.29 26.72 183.98 26.22 183.75 25.7C181.69 23.54 179.39 21.25 177.03 19.02C178.64 25.97 178.31 34.21 171.36 41.46C163.25 49.38 153.95 51.65 143.5 53.62C126.74 56.26 114.82 63.46 108.89 74.46C103.69 84.1 103.71 96.25 108.93 107.78C110.02 110.19 108.95 113.03 106.54 114.13C105.9 114.42 105.23 114.56 104.56 114.56L104.57 114.53Z" fill="#221D18"/>
<path d="M208.7 239.44C206.5 239.44 204.68 237.7 204.6 235.48C203.9 216.36 207.4 211.27 222.71 197.78C224.1 196.55 225.55 195.4 227 194.24C228.29 193.21 229.58 192.19 230.82 191.11C231.86 190.2 232.92 189.27 233.98 188.32C262 163.33 273.68 126.18 264.47 91.37C258.75 69.71 245.55 50.25 225.18 33.4C228.2 40.28 230.97 49.1 229.39 58.28C229 60.52 226.89 62.02 224.64 61.64C222.4 61.26 220.9 59.13 221.28 56.89C222.98 46.96 217.71 36.53 214.56 30.3C212.15 25.54 210.56 22.39 213.24 19.75C215.84 17.17 219.37 19 220.87 19.78C221.05 19.87 221.22 19.98 221.39 20.1C248.25 39.55 265.42 62.83 272.41 89.29C282.41 127.12 269.78 167.42 239.44 194.48C238.36 195.45 237.28 196.39 236.22 197.32C234.89 198.48 233.5 199.59 232.12 200.69C230.77 201.76 229.43 202.83 228.14 203.97C214.71 215.81 212.2 218.56 212.81 235.21C212.89 237.48 211.12 239.38 208.85 239.47C208.8 239.47 208.75 239.47 208.7 239.47V239.44Z" fill="#221D18"/>
</svg>
