<svg width="348" height="241" viewBox="0 0 348 241" fill="none" xmlns="http://www.w3.org/2000/svg">
<path d="M343.3 240.67H4.11C1.84 240.67 0 238.83 0 236.56C0 234.29 1.84 232.45 4.11 232.45H343.3C345.57 232.45 347.41 234.29 347.41 236.56C347.41 238.83 345.57 240.67 343.3 240.67Z" fill="url(#paint0_linear_5_5)"/>
<path d="M175.7 240.67C173.5 240.67 171.67 238.92 171.6 236.7C170.86 215.59 173.08 208.02 190.12 195.04C192.47 193.03 195.16 190.72 197.88 188.31C225.87 163.32 237.55 126.17 228.37 91.36C225.45 80.36 220.54 69.77 213.77 59.89C207.29 50.5 198.99 41.6 189.01 33.35C193.65 44.09 198.05 60.58 185.05 74.14C173.84 85.06 161.19 88.16 145.81 91.09C116.09 95.77 96.33 111.11 90.04 134.29C83.28 159.2 93.8 187.49 116.85 206.37C117.07 206.55 117.27 206.75 117.45 206.97C123.05 213.94 122.71 222.61 122.41 230.26C122.32 232.44 122.24 234.5 122.3 236.44C122.36 238.71 120.58 240.6 118.31 240.66C116.03 240.78 114.15 238.94 114.09 236.67C114.03 234.45 114.12 232.16 114.21 229.94C114.47 223.28 114.72 216.98 111.29 212.43C85.99 191.5 74.54 160.03 82.11 132.13C89.2 106.02 111.9 88.1 144.4 82.98C158.74 80.25 169.72 77.59 179.21 68.34C191.3 55.73 182.93 39.16 178.43 30.26C176.02 25.5 174.43 22.35 177.11 19.71C179.72 17.13 183.24 18.96 184.75 19.74C184.93 19.83 185.1 19.94 185.27 20.06C199.9 30.65 211.76 42.48 220.55 55.22C227.85 65.88 233.16 77.33 236.32 89.24C246.3 127.07 233.67 167.37 203.36 194.43C200.59 196.89 197.85 199.24 195.28 201.43C180.41 212.77 179.16 217.81 179.82 236.4C179.9 238.67 178.13 240.57 175.86 240.65C175.81 240.65 175.76 240.65 175.71 240.65L175.7 240.67Z" fill="url(#paint1_linear_5_5)"/>
<path d="M96.4 114.53C94.58 114.53 92.83 113.48 92.03 111.71C85.56 97.43 85.65 82.18 92.28 69.88C99.58 56.34 114.29 47.2 133.7 44.14C143.08 42.37 150.28 40.64 156.39 34.68C163.07 27.71 159.42 18.79 155.47 10.98C153.81 7.69 152.09 4.29 154.95 1.47C156.81 -0.370001 159.35 -0.480001 162.47 1.15C162.68 1.26 162.88 1.38 163.07 1.52C171.4 7.55 182.95 18.92 188.5 25.76C189.46 26.94 189.81 28.51 189.42 29.99C189.04 31.47 187.98 32.67 186.56 33.24C184.44 34.09 183.68 34.21 181.09 31.79L181.06 31.82C180.98 31.72 180.9 31.63 180.82 31.53C179.75 30.51 178.39 29.08 176.54 27.15C176.12 26.72 175.81 26.22 175.58 25.7C173.52 23.54 171.22 21.25 168.86 19.02C170.47 25.97 170.14 34.21 163.19 41.46C155.08 49.38 145.78 51.65 135.33 53.62C118.57 56.26 106.65 63.46 100.72 74.46C95.52 84.1 95.54 96.25 100.76 107.78C101.85 110.19 100.78 113.03 98.37 114.13C97.73 114.42 97.06 114.56 96.39 114.56L96.4 114.53Z" fill="url(#paint2_linear_5_5)"/>
<path d="M200.52 239.44C198.32 239.44 196.5 237.7 196.42 235.48C195.72 216.36 199.22 211.27 214.53 197.78C215.92 196.55 217.37 195.4 218.82 194.24C220.11 193.21 221.4 192.19 222.64 191.11C223.68 190.2 224.74 189.27 225.8 188.32C253.82 163.33 265.5 126.18 256.29 91.37C250.57 69.71 237.37 50.25 217 33.4C220.02 40.28 222.79 49.1 221.21 58.28C220.82 60.52 218.71 62.02 216.46 61.64C214.22 61.26 212.72 59.13 213.1 56.89C214.8 46.96 209.53 36.53 206.38 30.3C203.97 25.54 202.38 22.39 205.06 19.75C207.66 17.17 211.19 19 212.69 19.78C212.87 19.87 213.04 19.98 213.21 20.1C240.07 39.55 257.24 62.83 264.23 89.29C274.23 127.12 261.6 167.42 231.26 194.48C230.18 195.45 229.1 196.39 228.04 197.32C226.71 198.48 225.32 199.59 223.94 200.69C222.59 201.76 221.25 202.83 219.96 203.97C206.53 215.81 204.02 218.56 204.63 235.21C204.71 237.48 202.94 239.38 200.67 239.47C200.62 239.47 200.57 239.47 200.52 239.47V239.44Z" fill="url(#paint3_linear_5_5)"/>
<defs>
<linearGradient id="paint0_linear_5_5" x1="0" y1="236.56" x2="347.41" y2="236.56" gradientUnits="userSpaceOnUse">
<stop stop-color="#5D5146"/>
<stop offset="0.05" stop-color="#796D5F"/>
<stop offset="0.17" stop-color="#C0B19C"/>
<stop offset="0.26" stop-color="#ECDCC3"/>
<stop offset="0.3" stop-color="#FDEDD2"/>
<stop offset="0.38" stop-color="#F4E5CA"/>
<stop offset="0.51" stop-color="#DECFB7"/>
<stop offset="0.67" stop-color="#BAAB97"/>
<stop offset="0.86" stop-color="#877A6B"/>
<stop offset="0.99" stop-color="#5F5348"/>
</linearGradient>
<linearGradient id="paint1_linear_5_5" x1="313.12" y1="16.75" x2="-3.67" y2="281.03" gradientUnits="userSpaceOnUse">
<stop stop-color="#5D5146"/>
<stop offset="0.05" stop-color="#796D5F"/>
<stop offset="0.17" stop-color="#C0B19C"/>
<stop offset="0.26" stop-color="#ECDCC3"/>
<stop offset="0.3" stop-color="#FDEDD2"/>
<stop offset="0.38" stop-color="#F4E5CA"/>
<stop offset="0.51" stop-color="#DECFB7"/>
<stop offset="0.67" stop-color="#BAAB97"/>
<stop offset="0.86" stop-color="#877A6B"/>
<stop offset="0.99" stop-color="#5F5348"/>
</linearGradient>
<linearGradient id="paint2_linear_5_5" x1="256.84" y1="-50.72" x2="-59.96" y2="213.56" gradientUnits="userSpaceOnUse">
<stop stop-color="#5D5146"/>
<stop offset="0.05" stop-color="#796D5F"/>
<stop offset="0.17" stop-color="#C0B19C"/>
<stop offset="0.26" stop-color="#ECDCC3"/>
<stop offset="0.3" stop-color="#FDEDD2"/>
<stop offset="0.38" stop-color="#F4E5CA"/>
<stop offset="0.51" stop-color="#DECFB7"/>
<stop offset="0.67" stop-color="#BAAB97"/>
<stop offset="0.86" stop-color="#877A6B"/>
<stop offset="0.99" stop-color="#5F5348"/>
</linearGradient>
<linearGradient id="paint3_linear_5_5" x1="323.65" y1="29.37" x2="6.84998" y2="293.65" gradientUnits="userSpaceOnUse">
<stop stop-color="#5D5146"/>
<stop offset="0.05" stop-color="#796D5F"/>
<stop offset="0.17" stop-color="#C0B19C"/>
<stop offset="0.26" stop-color="#ECDCC3"/>
<stop offset="0.3" stop-color="#FDEDD2"/>
<stop offset="0.38" stop-color="#F4E5CA"/>
<stop offset="0.51" stop-color="#DECFB7"/>
<stop offset="0.67" stop-color="#BAAB97"/>
<stop offset="0.86" stop-color="#877A6B"/>
<stop offset="0.99" stop-color="#5F5348"/>
</linearGradient>
</defs>
</svg>
